<?xml version="1.0" encoding="utf-8"?>
<!DOCTYPE svg PUBLIC "-//W3C//DTD SVG 1.1//EN" "http://www.w3.org/Graphics/SVG/1.1/DTD/svg11.dtd">
<svg xmlns="http://www.w3.org/2000/svg" version="1.1" xml:space="preserve" xmlns:xlink="http://www.w3.org/1999/xlink" width="135" height="135" viewBox="0 0 135 135">
<desc></desc>
<rect width="135" height="135" fill="#ffffff" cx="0" cy="0" />
<defs>
	<rect id="p" width="3" height="3" />
</defs>
<g fill="#000000">
	<use x="12" y="12" xlink:href="#p" />
	<use x="15" y="12" xlink:href="#p" />
	<use x="18" y="12" xlink:href="#p" />
	<use x="21" y="12" xlink:href="#p" />
	<use x="24" y="12" xlink:href="#p" />
	<use x="27" y="12" xlink:href="#p" />
	<use x="30" y="12" xlink:href="#p" />
	<use x="42" y="12" xlink:href="#p" />
	<use x="48" y="12" xlink:href="#p" />
	<use x="51" y="12" xlink:href="#p" />
	<use x="54" y="12" xlink:href="#p" />
	<use x="57" y="12" xlink:href="#p" />
	<use x="66" y="12" xlink:href="#p" />
	<use x="69" y="12" xlink:href="#p" />
	<use x="72" y="12" xlink:href="#p" />
	<use x="75" y="12" xlink:href="#p" />
	<use x="78" y="12" xlink:href="#p" />
	<use x="81" y="12" xlink:href="#p" />
	<use x="93" y="12" xlink:href="#p" />
	<use x="96" y="12" xlink:href="#p" />
	<use x="102" y="12" xlink:href="#p" />
	<use x="105" y="12" xlink:href="#p" />
	<use x="108" y="12" xlink:href="#p" />
	<use x="111" y="12" xlink:href="#p" />
	<use x="114" y="12" xlink:href="#p" />
	<use x="117" y="12" xlink:href="#p" />
	<use x="120" y="12" xlink:href="#p" />
	<use x="12" y="15" xlink:href="#p" />
	<use x="30" y="15" xlink:href="#p" />
	<use x="36" y="15" xlink:href="#p" />
	<use x="42" y="15" xlink:href="#p" />
	<use x="51" y="15" xlink:href="#p" />
	<use x="54" y="15" xlink:href="#p" />
	<use x="57" y="15" xlink:href="#p" />
	<use x="60" y="15" xlink:href="#p" />
	<use x="66" y="15" xlink:href="#p" />
	<use x="69" y="15" xlink:href="#p" />
	<use x="72" y="15" xlink:href="#p" />
	<use x="75" y="15" xlink:href="#p" />
	<use x="78" y="15" xlink:href="#p" />
	<use x="84" y="15" xlink:href="#p" />
	<use x="87" y="15" xlink:href="#p" />
	<use x="93" y="15" xlink:href="#p" />
	<use x="96" y="15" xlink:href="#p" />
	<use x="102" y="15" xlink:href="#p" />
	<use x="120" y="15" xlink:href="#p" />
	<use x="12" y="18" xlink:href="#p" />
	<use x="18" y="18" xlink:href="#p" />
	<use x="21" y="18" xlink:href="#p" />
	<use x="24" y="18" xlink:href="#p" />
	<use x="30" y="18" xlink:href="#p" />
	<use x="48" y="18" xlink:href="#p" />
	<use x="51" y="18" xlink:href="#p" />
	<use x="57" y="18" xlink:href="#p" />
	<use x="63" y="18" xlink:href="#p" />
	<use x="72" y="18" xlink:href="#p" />
	<use x="84" y="18" xlink:href="#p" />
	<use x="87" y="18" xlink:href="#p" />
	<use x="96" y="18" xlink:href="#p" />
	<use x="102" y="18" xlink:href="#p" />
	<use x="108" y="18" xlink:href="#p" />
	<use x="111" y="18" xlink:href="#p" />
	<use x="114" y="18" xlink:href="#p" />
	<use x="120" y="18" xlink:href="#p" />
	<use x="12" y="21" xlink:href="#p" />
	<use x="18" y="21" xlink:href="#p" />
	<use x="21" y="21" xlink:href="#p" />
	<use x="24" y="21" xlink:href="#p" />
	<use x="30" y="21" xlink:href="#p" />
	<use x="36" y="21" xlink:href="#p" />
	<use x="39" y="21" xlink:href="#p" />
	<use x="42" y="21" xlink:href="#p" />
	<use x="48" y="21" xlink:href="#p" />
	<use x="54" y="21" xlink:href="#p" />
	<use x="57" y="21" xlink:href="#p" />
	<use x="66" y="21" xlink:href="#p" />
	<use x="72" y="21" xlink:href="#p" />
	<use x="78" y="21" xlink:href="#p" />
	<use x="87" y="21" xlink:href="#p" />
	<use x="90" y="21" xlink:href="#p" />
	<use x="93" y="21" xlink:href="#p" />
	<use x="96" y="21" xlink:href="#p" />
	<use x="102" y="21" xlink:href="#p" />
	<use x="108" y="21" xlink:href="#p" />
	<use x="111" y="21" xlink:href="#p" />
	<use x="114" y="21" xlink:href="#p" />
	<use x="120" y="21" xlink:href="#p" />
	<use x="12" y="24" xlink:href="#p" />
	<use x="18" y="24" xlink:href="#p" />
	<use x="21" y="24" xlink:href="#p" />
	<use x="24" y="24" xlink:href="#p" />
	<use x="30" y="24" xlink:href="#p" />
	<use x="39" y="24" xlink:href="#p" />
	<use x="57" y="24" xlink:href="#p" />
	<use x="60" y="24" xlink:href="#p" />
	<use x="66" y="24" xlink:href="#p" />
	<use x="84" y="24" xlink:href="#p" />
	<use x="102" y="24" xlink:href="#p" />
	<use x="108" y="24" xlink:href="#p" />
	<use x="111" y="24" xlink:href="#p" />
	<use x="114" y="24" xlink:href="#p" />
	<use x="120" y="24" xlink:href="#p" />
	<use x="12" y="27" xlink:href="#p" />
	<use x="30" y="27" xlink:href="#p" />
	<use x="36" y="27" xlink:href="#p" />
	<use x="39" y="27" xlink:href="#p" />
	<use x="45" y="27" xlink:href="#p" />
	<use x="48" y="27" xlink:href="#p" />
	<use x="69" y="27" xlink:href="#p" />
	<use x="72" y="27" xlink:href="#p" />
	<use x="75" y="27" xlink:href="#p" />
	<use x="78" y="27" xlink:href="#p" />
	<use x="87" y="27" xlink:href="#p" />
	<use x="93" y="27" xlink:href="#p" />
	<use x="96" y="27" xlink:href="#p" />
	<use x="102" y="27" xlink:href="#p" />
	<use x="120" y="27" xlink:href="#p" />
	<use x="12" y="30" xlink:href="#p" />
	<use x="15" y="30" xlink:href="#p" />
	<use x="18" y="30" xlink:href="#p" />
	<use x="21" y="30" xlink:href="#p" />
	<use x="24" y="30" xlink:href="#p" />
	<use x="27" y="30" xlink:href="#p" />
	<use x="30" y="30" xlink:href="#p" />
	<use x="36" y="30" xlink:href="#p" />
	<use x="42" y="30" xlink:href="#p" />
	<use x="48" y="30" xlink:href="#p" />
	<use x="54" y="30" xlink:href="#p" />
	<use x="60" y="30" xlink:href="#p" />
	<use x="66" y="30" xlink:href="#p" />
	<use x="72" y="30" xlink:href="#p" />
	<use x="78" y="30" xlink:href="#p" />
	<use x="84" y="30" xlink:href="#p" />
	<use x="90" y="30" xlink:href="#p" />
	<use x="96" y="30" xlink:href="#p" />
	<use x="102" y="30" xlink:href="#p" />
	<use x="105" y="30" xlink:href="#p" />
	<use x="108" y="30" xlink:href="#p" />
	<use x="111" y="30" xlink:href="#p" />
	<use x="114" y="30" xlink:href="#p" />
	<use x="117" y="30" xlink:href="#p" />
	<use x="120" y="30" xlink:href="#p" />
	<use x="39" y="33" xlink:href="#p" />
	<use x="42" y="33" xlink:href="#p" />
	<use x="45" y="33" xlink:href="#p" />
	<use x="54" y="33" xlink:href="#p" />
	<use x="60" y="33" xlink:href="#p" />
	<use x="63" y="33" xlink:href="#p" />
	<use x="75" y="33" xlink:href="#p" />
	<use x="78" y="33" xlink:href="#p" />
	<use x="84" y="33" xlink:href="#p" />
	<use x="87" y="33" xlink:href="#p" />
	<use x="90" y="33" xlink:href="#p" />
	<use x="96" y="33" xlink:href="#p" />
	<use x="12" y="36" xlink:href="#p" />
	<use x="15" y="36" xlink:href="#p" />
	<use x="18" y="36" xlink:href="#p" />
	<use x="21" y="36" xlink:href="#p" />
	<use x="24" y="36" xlink:href="#p" />
	<use x="30" y="36" xlink:href="#p" />
	<use x="33" y="36" xlink:href="#p" />
	<use x="36" y="36" xlink:href="#p" />
	<use x="39" y="36" xlink:href="#p" />
	<use x="45" y="36" xlink:href="#p" />
	<use x="60" y="36" xlink:href="#p" />
	<use x="63" y="36" xlink:href="#p" />
	<use x="66" y="36" xlink:href="#p" />
	<use x="75" y="36" xlink:href="#p" />
	<use x="87" y="36" xlink:href="#p" />
	<use x="93" y="36" xlink:href="#p" />
	<use x="99" y="36" xlink:href="#p" />
	<use x="105" y="36" xlink:href="#p" />
	<use x="111" y="36" xlink:href="#p" />
	<use x="117" y="36" xlink:href="#p" />
	<use x="12" y="39" xlink:href="#p" />
	<use x="21" y="39" xlink:href="#p" />
	<use x="27" y="39" xlink:href="#p" />
	<use x="36" y="39" xlink:href="#p" />
	<use x="42" y="39" xlink:href="#p" />
	<use x="48" y="39" xlink:href="#p" />
	<use x="51" y="39" xlink:href="#p" />
	<use x="54" y="39" xlink:href="#p" />
	<use x="57" y="39" xlink:href="#p" />
	<use x="75" y="39" xlink:href="#p" />
	<use x="78" y="39" xlink:href="#p" />
	<use x="90" y="39" xlink:href="#p" />
	<use x="93" y="39" xlink:href="#p" />
	<use x="99" y="39" xlink:href="#p" />
	<use x="102" y="39" xlink:href="#p" />
	<use x="114" y="39" xlink:href="#p" />
	<use x="117" y="39" xlink:href="#p" />
	<use x="120" y="39" xlink:href="#p" />
	<use x="12" y="42" xlink:href="#p" />
	<use x="15" y="42" xlink:href="#p" />
	<use x="24" y="42" xlink:href="#p" />
	<use x="27" y="42" xlink:href="#p" />
	<use x="30" y="42" xlink:href="#p" />
	<use x="33" y="42" xlink:href="#p" />
	<use x="39" y="42" xlink:href="#p" />
	<use x="51" y="42" xlink:href="#p" />
	<use x="54" y="42" xlink:href="#p" />
	<use x="57" y="42" xlink:href="#p" />
	<use x="60" y="42" xlink:href="#p" />
	<use x="72" y="42" xlink:href="#p" />
	<use x="75" y="42" xlink:href="#p" />
	<use x="78" y="42" xlink:href="#p" />
	<use x="81" y="42" xlink:href="#p" />
	<use x="87" y="42" xlink:href="#p" />
	<use x="93" y="42" xlink:href="#p" />
	<use x="99" y="42" xlink:href="#p" />
	<use x="105" y="42" xlink:href="#p" />
	<use x="114" y="42" xlink:href="#p" />
	<use x="12" y="45" xlink:href="#p" />
	<use x="18" y="45" xlink:href="#p" />
	<use x="24" y="45" xlink:href="#p" />
	<use x="42" y="45" xlink:href="#p" />
	<use x="48" y="45" xlink:href="#p" />
	<use x="51" y="45" xlink:href="#p" />
	<use x="57" y="45" xlink:href="#p" />
	<use x="63" y="45" xlink:href="#p" />
	<use x="72" y="45" xlink:href="#p" />
	<use x="75" y="45" xlink:href="#p" />
	<use x="78" y="45" xlink:href="#p" />
	<use x="102" y="45" xlink:href="#p" />
	<use x="105" y="45" xlink:href="#p" />
	<use x="114" y="45" xlink:href="#p" />
	<use x="12" y="48" xlink:href="#p" />
	<use x="15" y="48" xlink:href="#p" />
	<use x="21" y="48" xlink:href="#p" />
	<use x="24" y="48" xlink:href="#p" />
	<use x="30" y="48" xlink:href="#p" />
	<use x="36" y="48" xlink:href="#p" />
	<use x="39" y="48" xlink:href="#p" />
	<use x="42" y="48" xlink:href="#p" />
	<use x="48" y="48" xlink:href="#p" />
	<use x="54" y="48" xlink:href="#p" />
	<use x="57" y="48" xlink:href="#p" />
	<use x="72" y="48" xlink:href="#p" />
	<use x="84" y="48" xlink:href="#p" />
	<use x="93" y="48" xlink:href="#p" />
	<use x="99" y="48" xlink:href="#p" />
	<use x="111" y="48" xlink:href="#p" />
	<use x="117" y="48" xlink:href="#p" />
	<use x="12" y="51" xlink:href="#p" />
	<use x="15" y="51" xlink:href="#p" />
	<use x="18" y="51" xlink:href="#p" />
	<use x="21" y="51" xlink:href="#p" />
	<use x="36" y="51" xlink:href="#p" />
	<use x="42" y="51" xlink:href="#p" />
	<use x="57" y="51" xlink:href="#p" />
	<use x="60" y="51" xlink:href="#p" />
	<use x="66" y="51" xlink:href="#p" />
	<use x="75" y="51" xlink:href="#p" />
	<use x="78" y="51" xlink:href="#p" />
	<use x="84" y="51" xlink:href="#p" />
	<use x="87" y="51" xlink:href="#p" />
	<use x="96" y="51" xlink:href="#p" />
	<use x="99" y="51" xlink:href="#p" />
	<use x="114" y="51" xlink:href="#p" />
	<use x="117" y="51" xlink:href="#p" />
	<use x="15" y="54" xlink:href="#p" />
	<use x="30" y="54" xlink:href="#p" />
	<use x="36" y="54" xlink:href="#p" />
	<use x="42" y="54" xlink:href="#p" />
	<use x="45" y="54" xlink:href="#p" />
	<use x="48" y="54" xlink:href="#p" />
	<use x="66" y="54" xlink:href="#p" />
	<use x="69" y="54" xlink:href="#p" />
	<use x="72" y="54" xlink:href="#p" />
	<use x="75" y="54" xlink:href="#p" />
	<use x="78" y="54" xlink:href="#p" />
	<use x="108" y="54" xlink:href="#p" />
	<use x="114" y="54" xlink:href="#p" />
	<use x="120" y="54" xlink:href="#p" />
	<use x="18" y="57" xlink:href="#p" />
	<use x="21" y="57" xlink:href="#p" />
	<use x="27" y="57" xlink:href="#p" />
	<use x="39" y="57" xlink:href="#p" />
	<use x="42" y="57" xlink:href="#p" />
	<use x="45" y="57" xlink:href="#p" />
	<use x="54" y="57" xlink:href="#p" />
	<use x="60" y="57" xlink:href="#p" />
	<use x="63" y="57" xlink:href="#p" />
	<use x="72" y="57" xlink:href="#p" />
	<use x="75" y="57" xlink:href="#p" />
	<use x="78" y="57" xlink:href="#p" />
	<use x="81" y="57" xlink:href="#p" />
	<use x="84" y="57" xlink:href="#p" />
	<use x="87" y="57" xlink:href="#p" />
	<use x="90" y="57" xlink:href="#p" />
	<use x="96" y="57" xlink:href="#p" />
	<use x="99" y="57" xlink:href="#p" />
	<use x="102" y="57" xlink:href="#p" />
	<use x="117" y="57" xlink:href="#p" />
	<use x="12" y="60" xlink:href="#p" />
	<use x="15" y="60" xlink:href="#p" />
	<use x="18" y="60" xlink:href="#p" />
	<use x="30" y="60" xlink:href="#p" />
	<use x="33" y="60" xlink:href="#p" />
	<use x="36" y="60" xlink:href="#p" />
	<use x="45" y="60" xlink:href="#p" />
	<use x="60" y="60" xlink:href="#p" />
	<use x="63" y="60" xlink:href="#p" />
	<use x="66" y="60" xlink:href="#p" />
	<use x="69" y="60" xlink:href="#p" />
	<use x="72" y="60" xlink:href="#p" />
	<use x="75" y="60" xlink:href="#p" />
	<use x="81" y="60" xlink:href="#p" />
	<use x="90" y="60" xlink:href="#p" />
	<use x="93" y="60" xlink:href="#p" />
	<use x="96" y="60" xlink:href="#p" />
	<use x="99" y="60" xlink:href="#p" />
	<use x="105" y="60" xlink:href="#p" />
	<use x="108" y="60" xlink:href="#p" />
	<use x="111" y="60" xlink:href="#p" />
	<use x="120" y="60" xlink:href="#p" />
	<use x="12" y="63" xlink:href="#p" />
	<use x="15" y="63" xlink:href="#p" />
	<use x="18" y="63" xlink:href="#p" />
	<use x="21" y="63" xlink:href="#p" />
	<use x="27" y="63" xlink:href="#p" />
	<use x="48" y="63" xlink:href="#p" />
	<use x="51" y="63" xlink:href="#p" />
	<use x="54" y="63" xlink:href="#p" />
	<use x="57" y="63" xlink:href="#p" />
	<use x="69" y="63" xlink:href="#p" />
	<use x="75" y="63" xlink:href="#p" />
	<use x="84" y="63" xlink:href="#p" />
	<use x="90" y="63" xlink:href="#p" />
	<use x="93" y="63" xlink:href="#p" />
	<use x="99" y="63" xlink:href="#p" />
	<use x="102" y="63" xlink:href="#p" />
	<use x="108" y="63" xlink:href="#p" />
	<use x="111" y="63" xlink:href="#p" />
	<use x="117" y="63" xlink:href="#p" />
	<use x="15" y="66" xlink:href="#p" />
	<use x="21" y="66" xlink:href="#p" />
	<use x="27" y="66" xlink:href="#p" />
	<use x="30" y="66" xlink:href="#p" />
	<use x="51" y="66" xlink:href="#p" />
	<use x="54" y="66" xlink:href="#p" />
	<use x="57" y="66" xlink:href="#p" />
	<use x="60" y="66" xlink:href="#p" />
	<use x="66" y="66" xlink:href="#p" />
	<use x="69" y="66" xlink:href="#p" />
	<use x="72" y="66" xlink:href="#p" />
	<use x="75" y="66" xlink:href="#p" />
	<use x="78" y="66" xlink:href="#p" />
	<use x="81" y="66" xlink:href="#p" />
	<use x="87" y="66" xlink:href="#p" />
	<use x="99" y="66" xlink:href="#p" />
	<use x="102" y="66" xlink:href="#p" />
	<use x="105" y="66" xlink:href="#p" />
	<use x="108" y="66" xlink:href="#p" />
	<use x="111" y="66" xlink:href="#p" />
	<use x="120" y="66" xlink:href="#p" />
	<use x="15" y="69" xlink:href="#p" />
	<use x="21" y="69" xlink:href="#p" />
	<use x="27" y="69" xlink:href="#p" />
	<use x="36" y="69" xlink:href="#p" />
	<use x="39" y="69" xlink:href="#p" />
	<use x="42" y="69" xlink:href="#p" />
	<use x="48" y="69" xlink:href="#p" />
	<use x="51" y="69" xlink:href="#p" />
	<use x="57" y="69" xlink:href="#p" />
	<use x="63" y="69" xlink:href="#p" />
	<use x="75" y="69" xlink:href="#p" />
	<use x="78" y="69" xlink:href="#p" />
	<use x="81" y="69" xlink:href="#p" />
	<use x="84" y="69" xlink:href="#p" />
	<use x="96" y="69" xlink:href="#p" />
	<use x="111" y="69" xlink:href="#p" />
	<use x="114" y="69" xlink:href="#p" />
	<use x="117" y="69" xlink:href="#p" />
	<use x="120" y="69" xlink:href="#p" />
	<use x="18" y="72" xlink:href="#p" />
	<use x="24" y="72" xlink:href="#p" />
	<use x="27" y="72" xlink:href="#p" />
	<use x="30" y="72" xlink:href="#p" />
	<use x="39" y="72" xlink:href="#p" />
	<use x="48" y="72" xlink:href="#p" />
	<use x="54" y="72" xlink:href="#p" />
	<use x="57" y="72" xlink:href="#p" />
	<use x="66" y="72" xlink:href="#p" />
	<use x="72" y="72" xlink:href="#p" />
	<use x="81" y="72" xlink:href="#p" />
	<use x="87" y="72" xlink:href="#p" />
	<use x="90" y="72" xlink:href="#p" />
	<use x="93" y="72" xlink:href="#p" />
	<use x="96" y="72" xlink:href="#p" />
	<use x="102" y="72" xlink:href="#p" />
	<use x="105" y="72" xlink:href="#p" />
	<use x="111" y="72" xlink:href="#p" />
	<use x="117" y="72" xlink:href="#p" />
	<use x="12" y="75" xlink:href="#p" />
	<use x="15" y="75" xlink:href="#p" />
	<use x="21" y="75" xlink:href="#p" />
	<use x="24" y="75" xlink:href="#p" />
	<use x="27" y="75" xlink:href="#p" />
	<use x="42" y="75" xlink:href="#p" />
	<use x="57" y="75" xlink:href="#p" />
	<use x="60" y="75" xlink:href="#p" />
	<use x="75" y="75" xlink:href="#p" />
	<use x="84" y="75" xlink:href="#p" />
	<use x="90" y="75" xlink:href="#p" />
	<use x="93" y="75" xlink:href="#p" />
	<use x="102" y="75" xlink:href="#p" />
	<use x="105" y="75" xlink:href="#p" />
	<use x="120" y="75" xlink:href="#p" />
	<use x="12" y="78" xlink:href="#p" />
	<use x="18" y="78" xlink:href="#p" />
	<use x="21" y="78" xlink:href="#p" />
	<use x="24" y="78" xlink:href="#p" />
	<use x="30" y="78" xlink:href="#p" />
	<use x="33" y="78" xlink:href="#p" />
	<use x="42" y="78" xlink:href="#p" />
	<use x="45" y="78" xlink:href="#p" />
	<use x="48" y="78" xlink:href="#p" />
	<use x="69" y="78" xlink:href="#p" />
	<use x="72" y="78" xlink:href="#p" />
	<use x="75" y="78" xlink:href="#p" />
	<use x="78" y="78" xlink:href="#p" />
	<use x="81" y="78" xlink:href="#p" />
	<use x="87" y="78" xlink:href="#p" />
	<use x="90" y="78" xlink:href="#p" />
	<use x="93" y="78" xlink:href="#p" />
	<use x="108" y="78" xlink:href="#p" />
	<use x="111" y="78" xlink:href="#p" />
	<use x="114" y="78" xlink:href="#p" />
	<use x="117" y="78" xlink:href="#p" />
	<use x="120" y="78" xlink:href="#p" />
	<use x="12" y="81" xlink:href="#p" />
	<use x="15" y="81" xlink:href="#p" />
	<use x="18" y="81" xlink:href="#p" />
	<use x="36" y="81" xlink:href="#p" />
	<use x="39" y="81" xlink:href="#p" />
	<use x="42" y="81" xlink:href="#p" />
	<use x="45" y="81" xlink:href="#p" />
	<use x="54" y="81" xlink:href="#p" />
	<use x="60" y="81" xlink:href="#p" />
	<use x="63" y="81" xlink:href="#p" />
	<use x="66" y="81" xlink:href="#p" />
	<use x="75" y="81" xlink:href="#p" />
	<use x="78" y="81" xlink:href="#p" />
	<use x="81" y="81" xlink:href="#p" />
	<use x="84" y="81" xlink:href="#p" />
	<use x="87" y="81" xlink:href="#p" />
	<use x="90" y="81" xlink:href="#p" />
	<use x="96" y="81" xlink:href="#p" />
	<use x="99" y="81" xlink:href="#p" />
	<use x="105" y="81" xlink:href="#p" />
	<use x="114" y="81" xlink:href="#p" />
	<use x="120" y="81" xlink:href="#p" />
	<use x="18" y="84" xlink:href="#p" />
	<use x="21" y="84" xlink:href="#p" />
	<use x="30" y="84" xlink:href="#p" />
	<use x="36" y="84" xlink:href="#p" />
	<use x="42" y="84" xlink:href="#p" />
	<use x="45" y="84" xlink:href="#p" />
	<use x="63" y="84" xlink:href="#p" />
	<use x="66" y="84" xlink:href="#p" />
	<use x="69" y="84" xlink:href="#p" />
	<use x="72" y="84" xlink:href="#p" />
	<use x="84" y="84" xlink:href="#p" />
	<use x="87" y="84" xlink:href="#p" />
	<use x="93" y="84" xlink:href="#p" />
	<use x="99" y="84" xlink:href="#p" />
	<use x="105" y="84" xlink:href="#p" />
	<use x="108" y="84" xlink:href="#p" />
	<use x="114" y="84" xlink:href="#p" />
	<use x="117" y="84" xlink:href="#p" />
	<use x="120" y="84" xlink:href="#p" />
	<use x="12" y="87" xlink:href="#p" />
	<use x="15" y="87" xlink:href="#p" />
	<use x="18" y="87" xlink:href="#p" />
	<use x="36" y="87" xlink:href="#p" />
	<use x="48" y="87" xlink:href="#p" />
	<use x="51" y="87" xlink:href="#p" />
	<use x="54" y="87" xlink:href="#p" />
	<use x="57" y="87" xlink:href="#p" />
	<use x="63" y="87" xlink:href="#p" />
	<use x="69" y="87" xlink:href="#p" />
	<use x="75" y="87" xlink:href="#p" />
	<use x="78" y="87" xlink:href="#p" />
	<use x="81" y="87" xlink:href="#p" />
	<use x="84" y="87" xlink:href="#p" />
	<use x="87" y="87" xlink:href="#p" />
	<use x="90" y="87" xlink:href="#p" />
	<use x="93" y="87" xlink:href="#p" />
	<use x="102" y="87" xlink:href="#p" />
	<use x="105" y="87" xlink:href="#p" />
	<use x="108" y="87" xlink:href="#p" />
	<use x="120" y="87" xlink:href="#p" />
	<use x="12" y="90" xlink:href="#p" />
	<use x="18" y="90" xlink:href="#p" />
	<use x="24" y="90" xlink:href="#p" />
	<use x="27" y="90" xlink:href="#p" />
	<use x="30" y="90" xlink:href="#p" />
	<use x="36" y="90" xlink:href="#p" />
	<use x="39" y="90" xlink:href="#p" />
	<use x="51" y="90" xlink:href="#p" />
	<use x="54" y="90" xlink:href="#p" />
	<use x="57" y="90" xlink:href="#p" />
	<use x="66" y="90" xlink:href="#p" />
	<use x="69" y="90" xlink:href="#p" />
	<use x="75" y="90" xlink:href="#p" />
	<use x="87" y="90" xlink:href="#p" />
	<use x="99" y="90" xlink:href="#p" />
	<use x="102" y="90" xlink:href="#p" />
	<use x="108" y="90" xlink:href="#p" />
	<use x="111" y="90" xlink:href="#p" />
	<use x="114" y="90" xlink:href="#p" />
	<use x="117" y="90" xlink:href="#p" />
	<use x="12" y="93" xlink:href="#p" />
	<use x="18" y="93" xlink:href="#p" />
	<use x="21" y="93" xlink:href="#p" />
	<use x="27" y="93" xlink:href="#p" />
	<use x="33" y="93" xlink:href="#p" />
	<use x="42" y="93" xlink:href="#p" />
	<use x="48" y="93" xlink:href="#p" />
	<use x="51" y="93" xlink:href="#p" />
	<use x="57" y="93" xlink:href="#p" />
	<use x="60" y="93" xlink:href="#p" />
	<use x="63" y="93" xlink:href="#p" />
	<use x="81" y="93" xlink:href="#p" />
	<use x="84" y="93" xlink:href="#p" />
	<use x="87" y="93" xlink:href="#p" />
	<use x="90" y="93" xlink:href="#p" />
	<use x="93" y="93" xlink:href="#p" />
	<use x="102" y="93" xlink:href="#p" />
	<use x="105" y="93" xlink:href="#p" />
	<use x="111" y="93" xlink:href="#p" />
	<use x="114" y="93" xlink:href="#p" />
	<use x="12" y="96" xlink:href="#p" />
	<use x="24" y="96" xlink:href="#p" />
	<use x="30" y="96" xlink:href="#p" />
	<use x="33" y="96" xlink:href="#p" />
	<use x="36" y="96" xlink:href="#p" />
	<use x="39" y="96" xlink:href="#p" />
	<use x="42" y="96" xlink:href="#p" />
	<use x="48" y="96" xlink:href="#p" />
	<use x="54" y="96" xlink:href="#p" />
	<use x="66" y="96" xlink:href="#p" />
	<use x="69" y="96" xlink:href="#p" />
	<use x="72" y="96" xlink:href="#p" />
	<use x="78" y="96" xlink:href="#p" />
	<use x="81" y="96" xlink:href="#p" />
	<use x="84" y="96" xlink:href="#p" />
	<use x="90" y="96" xlink:href="#p" />
	<use x="93" y="96" xlink:href="#p" />
	<use x="96" y="96" xlink:href="#p" />
	<use x="99" y="96" xlink:href="#p" />
	<use x="102" y="96" xlink:href="#p" />
	<use x="105" y="96" xlink:href="#p" />
	<use x="108" y="96" xlink:href="#p" />
	<use x="111" y="96" xlink:href="#p" />
	<use x="117" y="96" xlink:href="#p" />
	<use x="36" y="99" xlink:href="#p" />
	<use x="60" y="99" xlink:href="#p" />
	<use x="63" y="99" xlink:href="#p" />
	<use x="66" y="99" xlink:href="#p" />
	<use x="69" y="99" xlink:href="#p" />
	<use x="93" y="99" xlink:href="#p" />
	<use x="96" y="99" xlink:href="#p" />
	<use x="108" y="99" xlink:href="#p" />
	<use x="117" y="99" xlink:href="#p" />
	<use x="12" y="102" xlink:href="#p" />
	<use x="15" y="102" xlink:href="#p" />
	<use x="18" y="102" xlink:href="#p" />
	<use x="21" y="102" xlink:href="#p" />
	<use x="24" y="102" xlink:href="#p" />
	<use x="27" y="102" xlink:href="#p" />
	<use x="30" y="102" xlink:href="#p" />
	<use x="36" y="102" xlink:href="#p" />
	<use x="42" y="102" xlink:href="#p" />
	<use x="45" y="102" xlink:href="#p" />
	<use x="48" y="102" xlink:href="#p" />
	<use x="69" y="102" xlink:href="#p" />
	<use x="72" y="102" xlink:href="#p" />
	<use x="75" y="102" xlink:href="#p" />
	<use x="81" y="102" xlink:href="#p" />
	<use x="87" y="102" xlink:href="#p" />
	<use x="93" y="102" xlink:href="#p" />
	<use x="96" y="102" xlink:href="#p" />
	<use x="102" y="102" xlink:href="#p" />
	<use x="108" y="102" xlink:href="#p" />
	<use x="111" y="102" xlink:href="#p" />
	<use x="114" y="102" xlink:href="#p" />
	<use x="120" y="102" xlink:href="#p" />
	<use x="12" y="105" xlink:href="#p" />
	<use x="30" y="105" xlink:href="#p" />
	<use x="39" y="105" xlink:href="#p" />
	<use x="45" y="105" xlink:href="#p" />
	<use x="54" y="105" xlink:href="#p" />
	<use x="57" y="105" xlink:href="#p" />
	<use x="60" y="105" xlink:href="#p" />
	<use x="63" y="105" xlink:href="#p" />
	<use x="78" y="105" xlink:href="#p" />
	<use x="84" y="105" xlink:href="#p" />
	<use x="96" y="105" xlink:href="#p" />
	<use x="108" y="105" xlink:href="#p" />
	<use x="114" y="105" xlink:href="#p" />
	<use x="117" y="105" xlink:href="#p" />
	<use x="120" y="105" xlink:href="#p" />
	<use x="12" y="108" xlink:href="#p" />
	<use x="18" y="108" xlink:href="#p" />
	<use x="21" y="108" xlink:href="#p" />
	<use x="24" y="108" xlink:href="#p" />
	<use x="30" y="108" xlink:href="#p" />
	<use x="36" y="108" xlink:href="#p" />
	<use x="39" y="108" xlink:href="#p" />
	<use x="45" y="108" xlink:href="#p" />
	<use x="63" y="108" xlink:href="#p" />
	<use x="66" y="108" xlink:href="#p" />
	<use x="84" y="108" xlink:href="#p" />
	<use x="87" y="108" xlink:href="#p" />
	<use x="90" y="108" xlink:href="#p" />
	<use x="93" y="108" xlink:href="#p" />
	<use x="96" y="108" xlink:href="#p" />
	<use x="99" y="108" xlink:href="#p" />
	<use x="102" y="108" xlink:href="#p" />
	<use x="105" y="108" xlink:href="#p" />
	<use x="108" y="108" xlink:href="#p" />
	<use x="111" y="108" xlink:href="#p" />
	<use x="114" y="108" xlink:href="#p" />
	<use x="117" y="108" xlink:href="#p" />
	<use x="120" y="108" xlink:href="#p" />
	<use x="12" y="111" xlink:href="#p" />
	<use x="18" y="111" xlink:href="#p" />
	<use x="21" y="111" xlink:href="#p" />
	<use x="24" y="111" xlink:href="#p" />
	<use x="30" y="111" xlink:href="#p" />
	<use x="36" y="111" xlink:href="#p" />
	<use x="39" y="111" xlink:href="#p" />
	<use x="48" y="111" xlink:href="#p" />
	<use x="51" y="111" xlink:href="#p" />
	<use x="54" y="111" xlink:href="#p" />
	<use x="60" y="111" xlink:href="#p" />
	<use x="63" y="111" xlink:href="#p" />
	<use x="69" y="111" xlink:href="#p" />
	<use x="84" y="111" xlink:href="#p" />
	<use x="90" y="111" xlink:href="#p" />
	<use x="93" y="111" xlink:href="#p" />
	<use x="96" y="111" xlink:href="#p" />
	<use x="99" y="111" xlink:href="#p" />
	<use x="102" y="111" xlink:href="#p" />
	<use x="111" y="111" xlink:href="#p" />
	<use x="120" y="111" xlink:href="#p" />
	<use x="12" y="114" xlink:href="#p" />
	<use x="18" y="114" xlink:href="#p" />
	<use x="21" y="114" xlink:href="#p" />
	<use x="24" y="114" xlink:href="#p" />
	<use x="30" y="114" xlink:href="#p" />
	<use x="36" y="114" xlink:href="#p" />
	<use x="42" y="114" xlink:href="#p" />
	<use x="51" y="114" xlink:href="#p" />
	<use x="54" y="114" xlink:href="#p" />
	<use x="69" y="114" xlink:href="#p" />
	<use x="72" y="114" xlink:href="#p" />
	<use x="75" y="114" xlink:href="#p" />
	<use x="84" y="114" xlink:href="#p" />
	<use x="87" y="114" xlink:href="#p" />
	<use x="93" y="114" xlink:href="#p" />
	<use x="96" y="114" xlink:href="#p" />
	<use x="99" y="114" xlink:href="#p" />
	<use x="102" y="114" xlink:href="#p" />
	<use x="105" y="114" xlink:href="#p" />
	<use x="111" y="114" xlink:href="#p" />
	<use x="114" y="114" xlink:href="#p" />
	<use x="120" y="114" xlink:href="#p" />
	<use x="12" y="117" xlink:href="#p" />
	<use x="30" y="117" xlink:href="#p" />
	<use x="36" y="117" xlink:href="#p" />
	<use x="39" y="117" xlink:href="#p" />
	<use x="42" y="117" xlink:href="#p" />
	<use x="48" y="117" xlink:href="#p" />
	<use x="51" y="117" xlink:href="#p" />
	<use x="57" y="117" xlink:href="#p" />
	<use x="60" y="117" xlink:href="#p" />
	<use x="63" y="117" xlink:href="#p" />
	<use x="72" y="117" xlink:href="#p" />
	<use x="78" y="117" xlink:href="#p" />
	<use x="84" y="117" xlink:href="#p" />
	<use x="87" y="117" xlink:href="#p" />
	<use x="93" y="117" xlink:href="#p" />
	<use x="96" y="117" xlink:href="#p" />
	<use x="99" y="117" xlink:href="#p" />
	<use x="111" y="117" xlink:href="#p" />
	<use x="12" y="120" xlink:href="#p" />
	<use x="15" y="120" xlink:href="#p" />
	<use x="18" y="120" xlink:href="#p" />
	<use x="21" y="120" xlink:href="#p" />
	<use x="24" y="120" xlink:href="#p" />
	<use x="27" y="120" xlink:href="#p" />
	<use x="30" y="120" xlink:href="#p" />
	<use x="36" y="120" xlink:href="#p" />
	<use x="39" y="120" xlink:href="#p" />
	<use x="48" y="120" xlink:href="#p" />
	<use x="54" y="120" xlink:href="#p" />
	<use x="57" y="120" xlink:href="#p" />
	<use x="60" y="120" xlink:href="#p" />
	<use x="63" y="120" xlink:href="#p" />
	<use x="66" y="120" xlink:href="#p" />
	<use x="69" y="120" xlink:href="#p" />
	<use x="72" y="120" xlink:href="#p" />
	<use x="84" y="120" xlink:href="#p" />
	<use x="87" y="120" xlink:href="#p" />
	<use x="105" y="120" xlink:href="#p" />
	<use x="111" y="120" xlink:href="#p" />
	<use x="120" y="120" xlink:href="#p" />
</g>
</svg>